<svg width="268" height="45" viewBox="0 0 268 45" fill="none" xmlns="http://www.w3.org/2000/svg">
<path opacity="0.4" fill-rule="evenodd" clip-rule="evenodd" d="M4.24433 21.4125C3.79268 20.9666 2.9775 20.9268 2.80473 21.5374C2.71415 21.8576 2.66504 22.1955 2.66504 22.5498C2.66504 24.2366 3.7778 25.5493 5.17765 26.3568L19.7746 34.7774C21.1849 35.5909 22.9189 35.9456 24.5545 35.9456C26.1901 35.9456 27.9241 35.5909 29.3343 34.7773L43.9313 26.3568C45.3311 25.5493 46.4439 24.2366 46.4439 22.5498C46.4439 22.1954 46.3948 21.8576 46.3042 21.5374C46.1314 20.9268 45.3163 20.9666 44.8646 21.4125C44.5327 21.7401 44.1449 22.0283 43.7219 22.2723L42.3341 23.0729C42.2699 23.1175 42.1976 23.1636 42.1163 23.2105L27.5193 31.6311C26.7909 32.0513 25.7219 32.3134 24.5545 32.3134C23.387 32.3134 22.318 32.0513 21.5896 31.6311L6.99264 23.2105C6.91131 23.1636 6.839 23.1175 6.77481 23.0729L5.38707 22.2723C4.96409 22.0283 4.57627 21.7401 4.24433 21.4125Z" fill="url(#paint0_linear_387_31843)"/>
<path opacity="0.4" fill-rule="evenodd" clip-rule="evenodd" d="M4.24726 30.4672C3.79561 30.0213 2.98043 29.9815 2.80766 30.5921C2.71708 30.9123 2.66797 31.2501 2.66797 31.6045C2.66797 33.2913 3.78073 34.604 5.18058 35.4115L19.7776 43.832C21.1878 44.6456 22.9218 45.0003 24.5574 45.0003C26.193 45.0003 27.927 44.6456 29.3372 43.832L43.9342 35.4115C45.3341 34.604 46.4468 33.2913 46.4468 31.6045C46.4468 31.2501 46.3977 30.9123 46.3071 30.5921C46.1344 29.9815 45.3192 30.0213 44.8675 30.4672C44.5356 30.7948 44.1478 31.083 43.7248 31.327L42.3371 32.1276C42.2729 32.1722 42.2006 32.2183 42.1192 32.2652L27.5223 40.6858C26.7939 41.1059 25.7248 41.3681 24.5574 41.3681C23.39 41.3681 22.3209 41.1059 21.5926 40.6858L6.99557 32.2652C6.91424 32.2183 6.84193 32.1722 6.77774 32.1276L5.39 31.327C4.96702 31.083 4.5792 30.7948 4.24726 30.4672Z" fill="url(#paint1_linear_387_31843)"/>
<path fill-rule="evenodd" clip-rule="evenodd" d="M20.1989 23.8682C19.9734 26.2836 25.0327 27.5856 27.9977 25.8751L44.8529 16.1519C47.818 14.4415 45.561 11.5229 41.3738 11.653L40.0835 11.6931C38.5735 11.7401 37.4153 12.4843 37.4967 13.3554L37.6508 15.006C37.6572 15.0744 37.7585 15.1268 37.8771 15.1232V15.1232C38.074 15.117 38.1802 15.2543 38.0407 15.3347L28.7116 20.7164C27.8238 21.2286 26.3089 20.8387 26.3764 20.1155L26.8514 15.0298C26.9977 13.4632 24.7554 12.1697 22.0397 12.2541L13.2236 12.5282C11.9698 12.5672 11.294 11.6933 12.1818 11.1811L21.5108 5.79956C21.6502 5.71912 21.8882 5.78035 21.8776 5.89395V5.89395C21.8712 5.96236 21.9621 6.02081 22.0807 6.02449L24.9419 6.11343C26.452 6.16037 27.7421 5.49225 27.8235 4.62115L27.893 3.87683C28.1186 1.46139 23.0593 0.159379 20.0942 1.86984L3.2391 11.593C0.274035 13.3035 2.53105 16.2221 6.71825 16.0919L17.9209 15.7436C19.5473 15.6931 20.8901 16.4677 20.8025 17.4059L20.1989 23.8682Z" fill="url(#paint2_linear_387_31843)"/>
<path fill-rule="evenodd" clip-rule="evenodd" d="M126.521 17.2544C126.521 15.826 127.678 14.668 129.107 14.668H143.971C145.399 14.668 146.557 15.826 146.557 17.2544V26.9832C146.557 28.4117 145.399 29.5697 143.971 29.5697H129.107C127.678 29.5697 126.521 28.4117 126.521 26.9832V17.2544ZM130.077 17.5777C129.72 17.5777 129.43 17.8672 129.43 18.2243V26.0133C129.43 26.3704 129.72 26.6599 130.077 26.6599H143.001C143.358 26.6599 143.648 26.3704 143.648 26.0133V18.2243C143.648 17.8672 143.358 17.5777 143.001 17.5777H130.077Z" fill="white"/>
<path d="M246.897 16.1583C246.327 16.6496 245.999 17.3649 245.999 18.1174V20.3713C245.999 20.5498 245.854 20.6946 245.676 20.6946H235.057H232.258C232.156 20.6946 232.073 20.6118 232.073 20.5097V19.033C232.073 19.032 232.074 19.0311 232.075 19.0311V19.0311C232.076 19.0311 232.077 19.0303 232.077 19.0293V15.7567C232.077 15.2034 231.427 14.9057 231.008 15.2669L229.974 16.1583C229.404 16.6496 229.076 17.3649 229.076 18.1174V28.1342C229.076 28.9628 229.748 29.6345 230.577 29.6345V29.6345C231.405 29.6345 232.077 28.9628 232.077 28.1342V24.2073C232.077 24.0287 232.222 23.884 232.4 23.884H245.676C245.854 23.884 245.999 24.0287 245.999 24.2073V28.1342C245.999 28.9628 246.671 29.6345 247.5 29.6345V29.6345C248.328 29.6345 249 28.9628 249 28.1342V15.7567C249 15.2034 248.35 14.9057 247.931 15.2669L246.897 16.1583Z" fill="white"/>
<path fill-rule="evenodd" clip-rule="evenodd" d="M197.709 17.4722C197.228 17.9277 196.592 18.1816 195.93 18.1816H179.715C179.13 18.1816 178.846 17.4678 179.27 17.0657L180.709 15.7016C181.189 15.2461 181.826 14.9922 182.488 14.9922H198.703C199.288 14.9922 199.572 15.706 199.148 16.1081L197.709 17.4722ZM197.709 23.13C197.228 23.5855 196.592 23.8394 195.93 23.8394H179.715C179.13 23.8394 178.846 23.1256 179.27 22.7235L180.709 21.3594C181.189 20.9039 181.826 20.65 182.488 20.65H198.703C199.288 20.65 199.572 21.3638 199.148 21.7659L197.709 23.13ZM179.27 28.3814C178.846 28.7835 179.13 29.4973 179.715 29.4973H195.93C196.592 29.4973 197.228 29.2434 197.709 28.7879L199.148 27.4237C199.572 27.0217 199.288 26.3079 198.703 26.3079H182.488C181.826 26.3079 181.189 26.5618 180.709 27.0173L179.27 28.3814Z" fill="white"/>
<path d="M205.084 18.1816V17.5786C205.084 16.1502 206.242 14.9922 207.671 14.9922H223.431C224.016 14.9922 224.3 15.706 223.876 16.1081L222.437 17.4722C221.957 17.9277 221.32 18.1816 220.658 18.1816H208.964C208.607 18.1816 208.317 18.4711 208.317 18.8282V20.0034C208.317 20.3605 208.607 20.65 208.964 20.65H214.099H221.174C222.602 20.65 223.76 21.808 223.76 23.2365V23.8394V26.9108C223.76 28.3393 222.602 29.4973 221.174 29.4973H205.09C204.505 29.4973 204.221 28.7835 204.645 28.3814L206.084 27.0173C206.564 26.5618 207.201 26.3079 207.863 26.3079H219.956C220.313 26.3079 220.603 26.0184 220.603 25.6613V24.486C220.603 24.1289 220.313 23.8394 219.956 23.8394H207.671C206.242 23.8394 205.084 22.6814 205.084 21.253V20.65V18.1816Z" fill="white"/>
<path d="M162.953 19.728C162.832 19.8246 162.665 19.8729 162.453 19.8729C162.301 19.8729 162.134 19.8246 161.953 19.728L155.591 15.3907C155.21 15.1311 154.76 14.9922 154.299 14.9922V14.9922C153.033 14.9922 152.006 16.0189 152.006 17.2855V29.2416C152.006 29.7949 152.656 30.0927 153.075 29.7314L154.109 28.8401C154.679 28.3487 155.007 27.6335 155.007 26.881V20.2496C155.007 19.7351 155.578 19.4267 156.008 19.709L161.737 23.4707C161.91 23.5846 162.095 23.6894 162.299 23.7245C162.355 23.7341 162.406 23.7389 162.453 23.7389C162.515 23.7389 162.58 23.7334 162.647 23.7226C162.855 23.6891 163.041 23.5836 163.217 23.4677L168.896 19.7144C169.326 19.4303 169.899 19.7386 169.899 20.2539V29.2416C169.899 29.7949 170.548 30.0927 170.968 29.7314L172.002 28.8401C172.572 28.3487 172.899 27.6335 172.899 26.881V17.2855C172.899 16.0189 171.873 14.9922 170.606 14.9922V14.9922C170.145 14.9922 169.695 15.1311 169.314 15.3907L162.953 19.728Z" fill="white"/>
<path d="M118.004 18.6053C118.004 17.9459 118.256 17.3115 118.708 16.8316L119.933 15.5315C120.334 15.1054 121.05 15.3895 121.05 15.9749V28.1897C121.05 29.0309 120.368 29.7128 119.527 29.7128V29.7128C118.686 29.7128 118.004 29.0309 118.004 28.1897V18.6053Z" fill="white"/>
<path d="M111.438 16.1357C111.903 15.7486 111.629 14.9922 111.024 14.9922H109.242C108.639 14.9922 108.056 15.2025 107.592 15.5868L102.566 19.7503C102.565 19.7508 102.565 19.7516 102.565 19.7521V19.7521C102.566 19.7525 102.566 19.7533 102.565 19.7538L99.4883 22.3341C99.4876 22.3347 99.4876 22.3358 99.4883 22.3363V22.3363C99.489 22.3369 99.489 22.338 99.4883 22.3386L99.0399 22.7101L98.4547 23.2008C98.4537 23.2017 98.4521 23.2017 98.451 23.2009V23.2009C98.45 23.2001 98.4484 23.2001 98.4474 23.201L92.0055 28.5382C91.539 28.9246 91.8123 29.6827 92.418 29.6827H94.1929C94.7954 29.6827 95.3789 29.4725 95.8429 29.0882L101.714 24.2248C101.716 24.2233 101.719 24.2233 101.721 24.2248V24.2248C101.723 24.2264 101.725 24.2264 101.727 24.2248L103.997 22.3532C104 22.3505 104 22.3454 103.997 22.3427V22.3427C103.994 22.34 103.994 22.335 103.997 22.3322L111.438 16.1357Z" fill="white"/>
<path d="M109.242 29.6827C108.639 29.6827 108.056 29.4725 107.592 29.0882L104.609 26.6171C103.913 26.0409 103.91 24.9751 104.602 24.3948V24.3948C105.138 23.9451 105.92 23.9438 106.457 24.3916L111.438 28.5393C111.903 28.9263 111.629 29.6827 111.024 29.6827H109.242Z" fill="white"/>
<path d="M97.0159 20.2879C97.5477 20.7285 98.3176 20.7282 98.8491 20.2873V20.2873C99.5416 19.7128 99.5412 18.6502 98.8482 18.0762L95.8429 15.5868C95.3789 15.2025 94.7954 14.9922 94.1929 14.9922H92.418C91.8123 14.9922 91.539 15.7503 92.0054 16.1367L97.0159 20.2879Z" fill="white"/>
<path d="M75.6978 20.0665C75.9553 19.6934 76.5068 19.6942 76.7632 20.0681L82.5536 28.5109C83.0359 29.2141 83.8338 29.6344 84.6866 29.6344H86.1397C86.6607 29.6344 86.9677 29.0499 86.6722 28.6209L77.9138 15.9103C77.4895 15.2982 76.9136 14.9922 76.1862 14.9922C75.8528 14.9922 75.5345 15.0727 75.2314 15.2338C74.9586 15.3949 74.7313 15.6204 74.5494 15.9103L65.7911 28.6209C65.4955 29.0499 65.8026 29.6344 66.3236 29.6344H67.7362C68.5862 29.6344 69.3819 29.2168 69.8648 28.5172L75.6978 20.0665Z" fill="white"/>
<defs>
<linearGradient id="paint0_linear_387_31843" x1="24.5544" y1="21.743" x2="24.5544" y2="34.6583" gradientUnits="userSpaceOnUse">
<stop stop-color="#ECC94B"/>
<stop offset="1" stop-color="#EC7B4B"/>
</linearGradient>
<linearGradient id="paint1_linear_387_31843" x1="24.5574" y1="30.7977" x2="24.5574" y2="43.713" gradientUnits="userSpaceOnUse">
<stop stop-color="#ECC94B"/>
<stop offset="1" stop-color="#EC7B4B"/>
</linearGradient>
<linearGradient id="paint2_linear_387_31843" x1="34.368" y1="19.8269" x2="24.0589" y2="1.95618" gradientUnits="userSpaceOnUse">
<stop stop-color="#ECC94B"/>
<stop offset="1" stop-color="#EC7B4B"/>
</linearGradient>
</defs>
</svg>
