<svg width="577" height="128" viewBox="0 0 577 128" fill="none" xmlns="http://www.w3.org/2000/svg">
<path d="M199.865 88H192.007V74.2489H166.469V88H158.612V46.7467C158.612 44.8477 159.266 43.2434 160.576 41.9338C161.951 40.5587 163.588 39.8711 165.487 39.8711H199.865V88ZM192.007 67.3733V46.7467H166.469V73.2667L172.363 67.3733H192.007ZM255.813 88H246.58L232.928 68.3556H231.945L219.078 88H209.649L227.427 62.9533L210.631 39.8711H220.06L232.633 58.4351H233.615L245.598 39.8711H254.831L238.232 62.9533L255.813 88ZM273.516 88H265.659V39.8711H273.516V88ZM331.936 81.1244C331.936 83.0234 331.248 84.6604 329.873 86.0356C328.563 87.3452 326.959 88 325.06 88H297.558C295.659 88 294.022 87.3452 292.647 86.0356C291.337 84.6604 290.682 83.0234 290.682 81.1244V46.7467C290.682 44.8477 291.337 43.2434 292.647 41.9338C294.022 40.5587 295.659 39.8711 297.558 39.8711H325.06C326.959 39.8711 328.563 40.5587 329.873 41.9338C331.248 43.2434 331.936 44.8477 331.936 46.7467V81.1244ZM324.078 81.1244V46.7467H298.54V81.1244H324.078ZM397.238 87.9018H389.38V51.756L392.327 46.8449H387.907L375.826 74.2489H370.129L358.44 46.8449H354.02L356.967 51.756V87.9018H349.109V39.8711H363.155L372.879 62.8551H373.861L383.585 39.8711H397.238V87.9018ZM449.288 88H414.91V53.6222L421.786 46.7467H414.91V39.8711H449.288V46.7467H422.768V66.3911L428.661 60.4978H449.288V67.3733H422.768V81.1244H449.288V88ZM496.435 81.1244C496.435 83.0234 495.747 84.6604 494.372 86.0356C493.062 87.3452 491.458 88 489.559 88H462.057V81.1244H488.577V67.3733H468.933C467.034 67.3733 465.397 66.7185 464.021 65.4089C462.712 64.0338 462.057 62.3967 462.057 60.4978V46.7467C462.057 44.8477 462.712 43.2434 464.021 41.9338C465.397 40.5587 467.034 39.8711 468.933 39.8711H496.435V46.7467H469.915V60.4978H489.559C491.458 60.4978 493.062 61.1853 494.372 62.5604C495.747 63.8701 496.435 65.4744 496.435 67.3733V81.1244ZM553.427 88H545.569V67.3733H520.031V88H512.173V39.8711H520.031V66.3911L525.924 60.4978H545.569V39.8711H553.427V88Z" fill="white"/>
<path d="M87.3484 66.9454C83.0356 64.4553 79.5393 56.0871 79.5393 48.2544C79.5393 43.4848 77.4103 38.3891 74.784 36.8728L67.8044 32.8431V32.844C65.2181 31.4349 63.1359 34.0664 63.1359 38.7834C63.1359 43.553 65.2649 48.6487 67.8912 50.165L74.7841 54.1447C75.9702 54.8294 77.0548 54.667 77.8878 53.8437C78.2597 55.8312 78.7784 57.772 79.4168 59.6014C78.1208 60.5904 76.5185 60.6922 74.7841 59.6908L67.8912 55.7112C63.5783 53.2211 60.082 44.8529 60.082 37.0202C60.082 29.2405 63.5312 24.9152 67.8038 27.2969L74.784 31.3266C79.0969 33.8167 82.5931 42.1849 82.5931 50.0176C82.5931 54.7872 84.7222 59.8829 87.3484 61.3992L94.3286 65.4292V70.9754L87.3484 66.9454Z" fill="white"/>
<path d="M87.3483 38.5801C85.6143 37.579 84.0123 37.6804 82.7165 38.6688C83.3549 40.4982 83.8736 42.4388 84.2456 44.4263C85.0784 43.6037 86.1627 43.4417 87.3483 44.1262L94.3285 48.1563C96.9548 49.6725 99.0838 54.7683 99.0838 59.5379C99.0838 64.3071 96.9552 66.9444 94.3292 65.429V70.9752C98.6417 73.4643 102.138 69.1333 102.138 61.301C102.138 53.4684 98.6414 45.1001 94.3285 42.6101L87.3483 38.5801Z" fill="white"/>
<path fill-rule="evenodd" clip-rule="evenodd" d="M47.803 6.98897C50.6727 5.33212 52.9991 6.67526 52.9991 9.98897V57.0007C52.9991 60.3144 50.6727 64.3438 47.803 66.0007L7.3485 89.3571C4.47874 91.014 2.15234 89.6708 2.15234 86.3571V39.3454C2.15234 36.0317 4.47874 32.0022 7.3485 30.3454L47.803 6.98897ZM15.9556 77.3543C10.6608 80.4112 8.21641 74.2233 12.2274 67.9164L22.1247 52.3543L12.2271 48.2206C8.21597 46.5454 10.6603 37.5348 15.9551 34.4779L39.4273 20.9262C44.7221 17.8693 47.1664 24.0573 43.1554 30.3641L40.307 34.8427L35.8054 31.4094L20.1464 40.4501L28.2374 43.8293C30.8814 44.9335 30.8815 49.6633 28.2375 53.8207L20.1467 66.5424L35.8059 57.5015L40.3076 48.8702L43.1559 50.0598C47.167 51.735 44.7227 60.7456 39.4279 63.8025L15.9556 77.3543Z" fill="white"/>
<path d="M43.9839 101.319C47.0427 103.083 52.0021 103.083 55.061 101.319L63.0893 96.6873C66.1482 94.9228 66.1482 92.0619 63.0893 90.2973C60.0305 88.5327 55.0711 88.5327 52.0122 90.2973L43.9839 94.9286C40.925 96.6932 40.925 99.5541 43.9839 101.319Z" fill="white"/>
<path fill-rule="evenodd" clip-rule="evenodd" d="M60.5939 69.4626C57.683 67.7833 52.9634 67.7833 50.0525 69.4625L9.74571 92.7142C6.83477 94.3935 6.83476 97.1161 9.74571 98.7953L50.2584 122.166C53.1694 123.845 57.8889 123.845 60.7999 122.166L101.107 98.9141C104.018 97.2349 104.018 94.5123 101.107 92.8331L60.5939 69.4626ZM58.6179 103.37C53.5946 106.268 45.4503 106.268 40.427 103.37C35.4037 100.473 35.4038 95.7745 40.427 92.8768L48.4554 88.2455C53.4786 85.3477 61.6229 85.3477 66.6462 88.2455C71.6695 91.1432 71.6695 95.8414 66.6462 98.7392L58.6179 103.37Z" fill="white"/>
</svg>
